<svg id="Camada_1_c贸pia_c贸pia_4" data-name="Camada 1 c贸pia c贸pia 4" xmlns="http://www.w3.org/2000/svg" viewBox="0 0 563.26 503.97"><defs><style>.cls-1{fill:#a85ae5;}.cls-2{fill:#fff;}</style></defs><path class="cls-1" d="M573.46,691.07l4.86,3.12c-.46,0-.92,0-1.39,0l-2.39,0c-.8,0-1.59-.11-2.38-.17a41.72,41.72,0,0,1-9-1.94c-1.45-.42-2.81-1-4.21-1.55l-2-1a21.86,21.86,0,0,1-2-1,52,52,0,0,1-7.49-4.89l-1.73-1.46-.86-.74-.82-.81-1.62-1.62-1.52-1.76a17.57,17.57,0,0,1-1.44-1.85c-.45-.64-.93-1.27-1.36-1.94a35.27,35.27,0,0,1-2.28-4.25,29.94,29.94,0,0,1-2.62-9.52c-.05-.41-.08-.83-.1-1.24l0-.47v-6.58q0-21.81.14-43.64,0-6.14.06-12.26c0-.31,0-.63,0-.94l0-5.57.08-9.69.42-52.72c.06-10.4.21-20.8.36-31.2l.43-31.21c.23-20.8.7-41.6,1.1-62.4.85-41.6,1.89-83.2,3.55-124.79,1.74,41.58,2.85,83.15,3.78,124.72.44,20.78.94,41.56,1.22,62.34l.49,31.17c.16,10.39.33,20.78.41,31.17l.53,53.26.09,9.08c0,1.94,0,3.87,0,5.81,0,.2,0,.41,0,.62q0,6.43.08,12.88h0q.15,21.51.22,43v6.58h0l.06.71a16.69,16.69,0,0,0,1.54,5.42c1.54,3.56,4.48,6.8,7.85,9.54a39.76,39.76,0,0,0,5.56,3.6c1,.57,2,1,3,1.46s2,.86,3.09,1.16a28,28,0,0,0,5.78,1.33c-.34.53-.7,1-1.06,1.57l-3.65,5.23Z" transform="translate(-257.66 -277.1)"/><path class="cls-1" d="M593.31,685.2l3.74,2.58a43.35,43.35,0,0,1-4.11,2.31,40.84,40.84,0,0,1-4.76,2,37.14,37.14,0,0,1-3.81,1.12l-4.91-3.14-5.11-3.28,3.65-5.23.36-.53,1.18-.17a24.59,24.59,0,0,0,2.65-.58,30,30,0,0,0,6.84-2.81c.77-.43,1.54-.89,2.29-1.38a39,39,0,0,0,6-4.87c-.35.94-.73,1.88-1.13,2.8a73,73,0,0,1-3.54,6.94c-.52.9-1.06,1.79-1.61,2.66Z" transform="translate(-257.66 -277.1)"/><path class="cls-1" d="M774.28,673.62c-13.21-1.69-26.37-3.59-39.52-5.57l-19.71-3-19.68-3.17q-19.68-3.24-39.31-6.67l-19.62-3.47-13.65-2.49a74.54,74.54,0,0,1-3.15,10.44,62.24,62.24,0,0,1-8.45,15,55,55,0,0,1-11.4,11.24L595,682.62a73.67,73.67,0,0,0,5.15-9.6,62.31,62.31,0,0,0,3.14-9.07,50.23,50.23,0,0,0,4.92-9,64.55,64.55,0,0,0,3.88-13.53l1.12-6.29,5.93,1.3,19.47,4.27,19.44,4.36q19.44,4.39,38.84,9l19.38,4.67,19.36,4.79C748.56,666.78,761.44,670.09,774.28,673.62Z" transform="translate(-257.66 -277.1)"/><path class="cls-2" d="M682.85,754.42,681,753.3,663.9,743l-17-10.41q-17-10.47-33.82-21.11l-16.83-10.66-11.87-7.61-4.91-3.14-5.11-3.28,3.65-5.23.36-.53a63.8,63.8,0,0,0,6.47-11.78,52.88,52.88,0,0,0,3.43-13.42,46,46,0,0,0,.32-5.36l-6.33-6.29-.39-.38h0c0-.15-.05-.28-.08-.43l10-2,2.67-.53,0,.18c.27,1.47.48,2.93.62,4.4h0a56.75,56.75,0,0,1-.28,13,62.64,62.64,0,0,1-4.65,16.6c-.37.82-.75,1.64-1.15,2.45-.57,1.18-1.18,2.35-1.82,3.5-.26.45-.52.91-.79,1.36-.44.77-.91,1.54-1.39,2.29l2,1.4,1.6,1.11,4.28,3,3.5,2.42,16.33,11.42q16.31,11.46,32.51,23.08l10.26,7.43.05,0,5.84,4.22,16.09,11.79Z" transform="translate(-257.66 -277.1)"/><path class="cls-2" d="M696.76,759.31q-5.91-3.48-11.79-7L667.9,742l-12.31-7.53-.09-.06h0l0,0-4.57-2.79q-17-10.47-33.82-21.11l-16.83-10.66-12.06-7.73-4.72-3-5.11-3.28,3.65-5.23.19-.28a64.58,64.58,0,0,0,6.64-12,52.88,52.88,0,0,0,3.43-13.42,46.28,46.28,0,0,0,.3-6.75,39.21,39.21,0,0,0-.74-6.52l0-.17a0,0,0,0,1,0,0l9-1.76v0l-.27.28a55,55,0,0,1,.36,17.5,61.33,61.33,0,0,1-3.52,13.8c-.35.94-.73,1.88-1.13,2.8a73,73,0,0,1-3.54,6.94c-.52.9-1.06,1.79-1.61,2.66l2.28,1.58,3.74,2.58,5.39,3.73,16.33,11.42q16.31,11.46,32.51,23.08l16.15,11.68,16.09,11.79Q690.15,754.37,696.76,759.31Z" transform="translate(-257.66 -277.1)"/><path class="cls-1" d="M820.92,405.45a366.35,366.35,0,0,0-90.47,21.62A301,301,0,0,0,688.71,447c-1.69.92-3.3,2-4.94,3s-3.3,2-4.9,3c-3.19,2.13-6.44,4.17-9.52,6.45-6.3,4.37-12.23,9.21-18,14.15-2.81,2.58-5.71,5.05-8.37,7.77-1.35,1.34-2.75,2.62-4,4L635,489.56a175.8,175.8,0,0,0-14.19,17.64l-1.64,2.29-1.53,2.37c-1,1.58-2.07,3.13-3,4.74l-2.82,4.86c-.49.8-.92,1.62-1.34,2.46l-1.28,2.49-1.29,2.48c-.42.83-.78,1.69-1.17,2.54-.76,1.7-1.56,3.38-2.29,5.09-1.35,3.46-2.78,6.88-3.87,10.43a136.13,136.13,0,0,0-7,43.48,168.39,168.39,0,0,0,6,43.78l1.19,5.39v0l-.27.28L597,643.5l-.53.54-1.36,1.4h0l-2.55,2.63-3.13,3.23-.85-.84-6.33-6.29-.39-.38h0l-35.92-35.63h0l-6.51-6.45L489.6,651.53l-7.07-7.07-.53-.52-3.76-3.77-.15-.15,1.28-5.57A180.75,180.75,0,0,0,484,612.69a154.63,154.63,0,0,0,1.71-22.11A135,135,0,0,0,478.89,547c-1.08-3.56-2.51-7-3.85-10.47-.73-1.72-1.53-3.41-2.29-5.11-.39-.85-.74-1.72-1.17-2.55l-1.29-2.49-1.28-2.5c-.42-.84-.86-1.67-1.34-2.47l-2.83-4.87c-.95-1.62-2-3.17-3-4.76l-1.53-2.38-1.65-2.3a174,174,0,0,0-14.24-17.68l-3.91-4.16c-1.31-1.38-2.71-2.68-4.06-4-2.67-2.72-5.59-5.2-8.41-7.78-1.45-1.25-2.93-2.46-4.4-3.69l-2.21-1.84c-.74-.61-1.51-1.17-2.27-1.76l-4.56-3.52c-1.54-1.14-3.12-2.23-4.68-3.35-3.09-2.29-6.37-4.32-9.57-6.46-1.61-1.06-3.28-2-4.92-3s-3.27-2-5-3a300.91,300.91,0,0,0-41.94-19.91,366.63,366.63,0,0,0-90.84-21.43,368.88,368.88,0,0,1,92.5,16.72,305.09,305.09,0,0,1,43.85,18c1.8.85,3.51,1.85,5.27,2.77s3.51,1.86,5.23,2.86c3.42,2,6.91,3.95,10.24,6.14,1.67,1.07,3.37,2.12,5,3.22l4.93,3.39c.82.57,1.66,1.12,2.46,1.71l2.4,1.8c1.6,1.2,3.22,2.37,4.8,3.6,3.09,2.54,6.28,5,9.25,7.68,1.49,1.34,3,2.63,4.49,4l4.36,4.17a187.14,187.14,0,0,1,16.18,18l1.9,2.38,1.78,2.47c1.18,1.65,2.42,3.27,3.55,5l3.34,5.11c.57.85,1.09,1.72,1.6,2.61l1.54,2.64,1.55,2.65c.51.88.95,1.81,1.43,2.71.93,1.82,1.9,3.63,2.8,5.47,1.69,3.73,3.46,7.45,4.87,11.31a151.26,151.26,0,0,1,10.2,48.28,172.08,172.08,0,0,1-.19,19.67l29.32-29.32,1.09-1.09,6-5.95,6.34,6.29.73.72,29.68,29.46q-.32-5.34-.32-10.69c0-3.12.09-6.25.26-9.37a152.82,152.82,0,0,1,10.41-48c1.42-3.85,3.19-7.54,4.88-11.26.9-1.83,1.87-3.63,2.8-5.44.48-.9.92-1.82,1.43-2.7l1.55-2.63,1.54-2.63c.51-.89,1-1.76,1.6-2.6l3.33-5.09c1.12-1.69,2.36-3.3,3.53-4.94l1.78-2.46,1.89-2.37a188.53,188.53,0,0,1,16.11-18l4.35-4.16c1.44-1.39,3-2.66,4.47-4,3-2.7,6.13-5.14,9.21-7.66,6.33-4.85,12.77-9.54,19.53-13.72,3.32-2.18,6.78-4.11,10.19-6.13,1.7-1,3.47-1.91,5.2-2.87s3.46-1.92,5.24-2.77a307,307,0,0,1,43.66-18.08A368.65,368.65,0,0,1,820.92,405.45Z" transform="translate(-257.66 -277.1)"/><path class="cls-1" d="M528.92,620.13Z" transform="translate(-257.66 -277.1)"/><path class="cls-1" d="M470.11,681.53a6.42,6.42,0,0,0-1.11-8.39,44.19,44.19,0,0,1-5.41-5.77,52.39,52.39,0,0,1-7.07-11.91,65.13,65.13,0,0,1-3.87-13.53l-1.12-6.29-5.94,1.3-19.46,4.27-19.45,4.36q-19.44,4.39-38.83,9l-19.39,4.66L329.1,664c-12.89,3.24-25.78,6.56-38.62,10.08,13.21-1.69,26.38-3.59,39.52-5.57l19.72-3,19.68-3.17q19.67-3.24,39.3-6.67l19.62-3.47,19.61-3.57-7.05-5a74.41,74.41,0,0,0,4.24,16.5,62.92,62.92,0,0,0,8.45,15,57.85,57.85,0,0,0,6.93,7.6,6.4,6.4,0,0,0,9.61-1.21Z" transform="translate(-257.66 -277.1)"/><path class="cls-1" d="M491,642.36a42.36,42.36,0,0,0-.47,13.46,52.34,52.34,0,0,0,3.42,13.42,65.09,65.09,0,0,0,6.83,12.31l3.66,5.24-5.12,3.27-16.78,10.75-16.83,10.67q-16.86,10.63-33.82,21.11l-17,10.4-17.08,10.3c-11.41,6.83-22.86,13.6-34.44,20.18,10.54-8.14,21.19-16.1,31.89-24l16.09-11.79L427.48,726q16.2-11.61,32.5-23.07l16.34-11.42,16.38-11.34-1.46,8.51A74.43,74.43,0,0,1,482.57,674a62.91,62.91,0,0,1-4.65-16.6,54.85,54.85,0,0,1,.38-17.56Z" transform="translate(-257.66 -277.1)"/><path class="cls-1" d="M715.41,773.48q-16.41-9.35-32.56-19.06L681,753.3,663.9,743l-17-10.41q-17-10.47-33.82-21.11l-16.83-10.66-11.87-7.61-4.91-3.14-5.11-3.28,3.65-5.23.36-.53a63.8,63.8,0,0,0,6.47-11.78,52.88,52.88,0,0,0,3.43-13.42,46,46,0,0,0,.32-5.36,39.63,39.63,0,0,0-.8-8.11l4-.8,2.67-.52,6-1.18s0,0,0,.06a55,55,0,0,1,.36,17.5,61.33,61.33,0,0,1-3.52,13.8c-.35.94-.73,1.88-1.13,2.8a73,73,0,0,1-3.54,6.94c-.52.9-1.06,1.79-1.61,2.66l2.28,1.58,3.74,2.58,5.39,3.73,16.33,11.42q16.31,11.46,32.51,23.08l16.15,11.68,16.09,11.79q6.63,4.89,13.24,9.83Q706.14,766.32,715.41,773.48Z" transform="translate(-257.66 -277.1)"/><path class="cls-1" d="M492.63,750.77V736h-5.81v-2.76h14.87V736h-5.81v14.77Z" transform="translate(-257.66 -277.1)"/><path class="cls-1" d="M507.4,750.77h-3.25V733.24h3.25Zm9.32-7.51h-9.57v-2.78h9.57Zm-.25-10h3.23v17.53h-3.23Z" transform="translate(-257.66 -277.1)"/><path class="cls-1" d="M522,750.77l7.89-17.53H533L541,750.77h-3.43L530.76,735h1.3l-6.78,15.8Zm3.63-4.06.9-2.55h9.44l.88,2.55Z" transform="translate(-257.66 -277.1)"/><path class="cls-1" d="M542.71,731.81l3.38-3.43h3.7l-4.38,3.43Zm.47,19V733.24h3.26v17.53Z" transform="translate(-257.66 -277.1)"/><path class="cls-1" d="M556.6,751a12.94,12.94,0,0,1-3.91-.59,9,9,0,0,1-3-1.51l1.13-2.53a9,9,0,0,0,2.6,1.37,9.43,9.43,0,0,0,3.18.56,6.57,6.57,0,0,0,2.23-.31,2.62,2.62,0,0,0,1.25-.81,1.83,1.83,0,0,0,.41-1.16,1.61,1.61,0,0,0-.58-1.29,4.11,4.11,0,0,0-1.49-.78,20.59,20.59,0,0,0-2-.52c-.74-.16-1.48-.36-2.23-.59a10.48,10.48,0,0,1-2-.89,4.28,4.28,0,0,1-1.49-1.44,4.34,4.34,0,0,1-.56-2.31,4.71,4.71,0,0,1,.76-2.61,5.26,5.26,0,0,1,2.33-1.9,9.52,9.52,0,0,1,4-.72,12.38,12.38,0,0,1,3.13.4,9.09,9.09,0,0,1,2.7,1.15l-1,2.53a10.29,10.29,0,0,0-2.43-1,9.49,9.49,0,0,0-2.41-.33,6.06,6.06,0,0,0-2.17.32,2.71,2.71,0,0,0-1.24.86,2,2,0,0,0-.39,1.19,1.62,1.62,0,0,0,.56,1.29,4.06,4.06,0,0,0,1.48.77c.61.18,1.29.36,2,.52s1.49.37,2.23.59a10,10,0,0,1,2,.88,4.34,4.34,0,0,1,1.49,1.43,4.18,4.18,0,0,1,.56,2.26,4.67,4.67,0,0,1-.76,2.59,5.23,5.23,0,0,1-2.35,1.91A9.74,9.74,0,0,1,556.6,751Z" transform="translate(-257.66 -277.1)"/><path class="cls-1" d="M573.83,750.77V733.24h3.26V748h9.16v2.76Z" transform="translate(-257.66 -277.1)"/><path class="cls-1" d="M590.31,750.94a2,2,0,0,1-1.48-.58,2,2,0,0,1-.6-1.52,2,2,0,0,1,.6-1.49,2.1,2.1,0,0,1,1.48-.56,2,2,0,0,1,1.42.56,1.92,1.92,0,0,1,.61,1.49,2,2,0,0,1-.61,1.52A2,2,0,0,1,590.31,750.94Z" transform="translate(-257.66 -277.1)"/><path class="cls-1" d="M479.82,780.82V763.29h2.68l7.66,12.79h-1.4l7.54-12.79H499l0,17.53H495.9v-12.7h.62l-6.36,10.72h-1.48l-6.51-10.72h.75v12.7Z" transform="translate(-257.66 -277.1)"/><path class="cls-1" d="M512,781.07a10.31,10.31,0,0,1-3.77-.68,9,9,0,0,1-3-1.9,8.78,8.78,0,0,1-2-2.87,9.5,9.5,0,0,1,0-7.16,8.6,8.6,0,0,1,2-2.85,9.3,9.3,0,0,1,3-1.9,11,11,0,0,1,7.54,0,8.94,8.94,0,0,1,3,1.88,8.55,8.55,0,0,1,2,2.87,9.61,9.61,0,0,1,0,7.2,8.74,8.74,0,0,1-5,4.75A10.2,10.2,0,0,1,512,781.07Zm0-2.86a6.5,6.5,0,0,0,2.44-.45,5.78,5.78,0,0,0,1.94-1.27,6.08,6.08,0,0,0,1.29-2,6.41,6.41,0,0,0,.46-2.48,6.67,6.67,0,0,0-.45-2.48,5.63,5.63,0,0,0-1.29-2,6,6,0,0,0-2-1.28,6.5,6.5,0,0,0-2.44-.45,6.65,6.65,0,0,0-2.47.45,5.76,5.76,0,0,0-2,1.29,6.27,6.27,0,0,0-1.3,2,6.13,6.13,0,0,0-.47,2.46,6.2,6.2,0,0,0,.47,2.46,6.27,6.27,0,0,0,1.3,2,5.62,5.62,0,0,0,2,1.29A6.65,6.65,0,0,0,512,778.21Z" transform="translate(-257.66 -277.1)"/><path class="cls-1" d="M524.82,780.82V763.29H532a9.83,9.83,0,0,1,4,.74,5.67,5.67,0,0,1,2.57,2.14,6.05,6.05,0,0,1,.9,3.35,5.92,5.92,0,0,1-.9,3.31A5.84,5.84,0,0,1,536,775a9.66,9.66,0,0,1-4,.75h-5.39l1.43-1.45v6.56Zm3.25-6.21L526.64,773h5.24a4.89,4.89,0,0,0,3.24-.93,3.57,3.57,0,0,0,0-5.14,5,5,0,0,0-3.24-.92h-5.24l1.43-1.6Zm8.21,6.21-4.43-6.36h3.48l4.46,6.36Z" transform="translate(-257.66 -277.1)"/><path class="cls-1" d="M546.38,778.06h9.89v2.76H543.12V763.29h12.8V766h-9.54Zm-.26-7.48h8.72v2.67h-8.72Z" transform="translate(-257.66 -277.1)"/><path class="cls-1" d="M559.9,780.82V763.29h3.25v17.53Z" transform="translate(-257.66 -277.1)"/><path class="cls-1" d="M567.88,780.82V763.29h7.22a9.83,9.83,0,0,1,4,.74,5.72,5.72,0,0,1,2.57,2.14,6.05,6.05,0,0,1,.9,3.35,5.61,5.61,0,0,1-3.47,5.44,9.66,9.66,0,0,1-4,.75h-5.39l1.43-1.45v6.56Zm3.26-6.21L569.71,773H575a4.89,4.89,0,0,0,3.24-.93,3.57,3.57,0,0,0,0-5.14A5,5,0,0,0,575,766h-5.24l1.43-1.6Zm8.21,6.21-4.43-6.36h3.48l4.46,6.36Z" transform="translate(-257.66 -277.1)"/><path class="cls-1" d="M583.71,780.82l7.89-17.53h3.2l7.91,17.53h-3.43L592.52,765h1.31L587,780.82Zm3.63-4.06.9-2.55h9.44l.88,2.55Z" transform="translate(-257.66 -277.1)"/></svg>